<svg xmlns="http://www.w3.org/2000/svg" width="1024" height="1024" viewBox="0 0 1024 1024">
  <defs>
    <linearGradient id="bg" x1="128" y1="116" x2="910" y2="912" gradientUnits="userSpaceOnUse">
      <stop offset="0" stop-color="#2a1734"/>
      <stop offset="1" stop-color="#7c2d12"/>
    </linearGradient>
    <linearGradient id="disc" x1="354" y1="254" x2="722" y2="700" gradientUnits="userSpaceOnUse">
      <stop offset="0" stop-color="#fff7ed"/>
      <stop offset="1" stop-color="#d1d5db"/>
    </linearGradient>
    <filter id="shadow" x="-20%" y="-20%" width="140%" height="140%">
      <feDropShadow dx="0" dy="24" stdDeviation="28" flood-color="#130b18" flood-opacity="0.36"/>
    </filter>
  </defs>

  <rect width="1024" height="1024" rx="232" fill="url(#bg)"/>

  <g filter="url(#shadow)">
    <rect x="176" y="584" width="672" height="164" rx="82" fill="#201426"/>
    <rect x="230" y="628" width="564" height="74" rx="37" fill="#4b5563"/>
  </g>

  <g filter="url(#shadow)">
    <circle cx="512" cy="466" r="258" fill="url(#disc)"/>
    <circle cx="512" cy="466" r="84" fill="#201426"/>
    <circle cx="512" cy="466" r="34" fill="#fff7ed"/>
  </g>

  <g fill="none" stroke="#9ca3af" stroke-opacity="0.42">
    <circle cx="512" cy="466" r="220" stroke-width="10"/>
    <circle cx="512" cy="466" r="184" stroke-width="8"/>
    <circle cx="512" cy="466" r="148" stroke-width="7"/>
  </g>

  <path d="M512 208 A258 258 0 0 1 735 336 L618 452 A110 110 0 0 0 512 356 Z" fill="#fb923c"/>
  <path d="M560 598 L688 598 L688 654 L744 654 L624 768 L504 654 L560 654 Z" fill="#facc15"/>
  <path
    d="M662 310 L724 360 L684 410 L724 458 L678 512"
    fill="none"
    stroke="#f87171"
    stroke-width="34"
    stroke-linecap="round"
    stroke-linejoin="round"
  />
</svg>
