<svg xmlns="http://www.w3.org/2000/svg" width="1024" height="1024" viewBox="0 0 1024 1024">
  <defs>
    <linearGradient id="bg" x1="120" y1="120" x2="904" y2="904" gradientUnits="userSpaceOnUse">
      <stop offset="0" stop-color="#102033"/>
      <stop offset="1" stop-color="#155e75"/>
    </linearGradient>
    <linearGradient id="disc" x1="288" y1="244" x2="736" y2="780" gradientUnits="userSpaceOnUse">
      <stop offset="0" stop-color="#fff8ef"/>
      <stop offset="1" stop-color="#d7d5cf"/>
    </linearGradient>
    <filter id="shadow" x="-20%" y="-20%" width="140%" height="140%">
      <feDropShadow dx="0" dy="24" stdDeviation="28" flood-color="#081119" flood-opacity="0.35"/>
    </filter>
  </defs>

  <rect width="1024" height="1024" rx="232" fill="url(#bg)"/>
  <circle cx="512" cy="512" r="318" fill="#081119" opacity="0.16"/>

  <g filter="url(#shadow)">
    <circle cx="512" cy="512" r="284" fill="url(#disc)"/>
    <circle cx="512" cy="512" r="88" fill="#16354a"/>
    <circle cx="512" cy="512" r="38" fill="#fff8ef"/>
  </g>

  <g fill="none" stroke="#b7c3cb" stroke-opacity="0.38">
    <circle cx="512" cy="512" r="244" stroke-width="10"/>
    <circle cx="512" cy="512" r="208" stroke-width="8"/>
    <circle cx="512" cy="512" r="172" stroke-width="7"/>
    <circle cx="512" cy="512" r="136" stroke-width="6"/>
  </g>

  <path d="M512 228 A284 284 0 0 1 778 423 L642 486 A134 134 0 0 0 512 378 Z" fill="#f6b14e"/>
  <path d="M327 725 A284 284 0 0 1 253 453 L397 479 A138 138 0 0 0 432 597 Z" fill="#fff8ef"/>

  <path
    d="M664 350 L744 414 L692 468 L744 524 L688 584 L738 638 L658 708"
    fill="none"
    stroke="#ff7a45"
    stroke-width="44"
    stroke-linecap="round"
    stroke-linejoin="round"
  />
  <path
    d="M628 322 A308 308 0 0 1 808 506"
    fill="none"
    stroke="#5eead4"
    stroke-width="22"
    stroke-linecap="round"
    opacity="0.95"
  />
</svg>
