<svg xmlns="http://www.w3.org/2000/svg" width="1024" height="1024" viewBox="0 0 1024 1024">
  <defs>
    <linearGradient id="bg" x1="112" y1="112" x2="912" y2="912" gradientUnits="userSpaceOnUse">
      <stop offset="0" stop-color="#122235"/>
      <stop offset="1" stop-color="#0a1620"/>
    </linearGradient>
    <linearGradient id="cd" x1="300" y1="172" x2="736" y2="744" gradientUnits="userSpaceOnUse">
      <stop offset="0" stop-color="#fffefc"/>
      <stop offset="0.48" stop-color="#e2e8ef"/>
      <stop offset="1" stop-color="#c0c8d1"/>
    </linearGradient>
  </defs>

  <rect width="1024" height="1024" rx="232" fill="url(#bg)"/>

  <circle cx="536" cy="392" r="278" fill="#0b1722" opacity="0.22"/>
  <circle cx="536" cy="372" r="252" fill="url(#cd)"/>
  <circle cx="536" cy="372" r="96" fill="#f8f6ef"/>
  <circle cx="536" cy="372" r="58" fill="#18344c"/>
  <circle cx="536" cy="372" r="18" fill="#f8f6ef"/>
  <circle cx="536" cy="372" r="208" fill="none" stroke="#8490a0" stroke-width="6" stroke-opacity="0.24"/>
  <circle cx="536" cy="372" r="172" fill="none" stroke="#8490a0" stroke-width="5" stroke-opacity="0.18"/>

  <path d="M742 222 A252 252 0 0 1 794 314" fill="none" stroke="#ffad3b" stroke-width="26" stroke-linecap="round"/>
  <path d="M714 188 A252 252 0 0 1 752 210" fill="none" stroke="#ff6f61" stroke-width="18" stroke-linecap="round"/>
  <path d="M286 456 A252 252 0 0 1 322 538" fill="none" stroke="#4fd1c5" stroke-width="24" stroke-linecap="round"/>
  <path d="M314 520 A252 252 0 0 1 372 590" fill="none" stroke="#7dd3fc" stroke-width="18" stroke-linecap="round"/>

  <path
    d="M674 286 L730 340 L694 386 L736 432 L688 486"
    fill="none"
    stroke="#17324c"
    stroke-width="24"
    stroke-linecap="round"
    stroke-linejoin="round"
  />
  <path
    d="M674 286 L730 340 L694 386 L736 432 L688 486"
    fill="none"
    stroke="#f97316"
    stroke-width="10"
    stroke-linecap="round"
    stroke-linejoin="round"
  />

  <g fill="#081119">
    <rect x="88" y="520" width="116" height="96" rx="4"/>
    <rect x="184" y="494" width="84" height="122" rx="4"/>
    <rect x="252" y="438" width="116" height="178" rx="4"/>
    <rect x="348" y="526" width="64" height="90" rx="4"/>
    <rect x="402" y="406" width="128" height="210" rx="4"/>
    <rect x="514" y="496" width="86" height="120" rx="4"/>
    <rect x="586" y="458" width="94" height="158" rx="4"/>
    <rect x="666" y="512" width="70" height="104" rx="4"/>
    <rect x="724" y="444" width="116" height="172" rx="4"/>
    <rect x="826" y="522" width="108" height="94" rx="4"/>
  </g>

  <g fill="#f8f6ef">
    <rect x="116" y="554" width="11" height="11"/>
    <rect x="140" y="554" width="11" height="11"/>
    <rect x="116" y="579" width="11" height="11"/>
    <rect x="274" y="468" width="11" height="11"/>
    <rect x="299" y="468" width="11" height="11"/>
    <rect x="324" y="468" width="11" height="11"/>
    <rect x="274" y="493" width="11" height="11"/>
    <rect x="430" y="436" width="11" height="11"/>
    <rect x="455" y="436" width="11" height="11"/>
    <rect x="748" y="476" width="11" height="11"/>
    <rect x="773" y="476" width="11" height="11"/>
    <rect x="798" y="476" width="11" height="11"/>
    <rect x="748" y="501" width="11" height="11"/>
  </g>

  <rect x="54" y="616" width="916" height="22" rx="11" fill="#081119"/>
  <g fill="#081119" opacity="0.5">
    <rect x="98" y="664" width="142" height="8" rx="4"/>
    <rect x="214" y="688" width="76" height="8" rx="4"/>
    <rect x="384" y="668" width="122" height="8" rx="4"/>
    <rect x="590" y="684" width="108" height="8" rx="4"/>
    <rect x="748" y="666" width="132" height="8" rx="4"/>
  </g>
</svg>
