<svg xmlns="http://www.w3.org/2000/svg" width="1024" height="1024" viewBox="0 0 1024 1024">
  <defs>
    <linearGradient id="bg" x1="144" y1="128" x2="900" y2="896" gradientUnits="userSpaceOnUse">
      <stop offset="0" stop-color="#f7f1e3"/>
      <stop offset="1" stop-color="#e6cfb0"/>
    </linearGradient>
    <filter id="shadow" x="-20%" y="-20%" width="140%" height="140%">
      <feDropShadow dx="0" dy="20" stdDeviation="24" flood-color="#221811" flood-opacity="0.18"/>
    </filter>
  </defs>

  <rect width="1024" height="1024" rx="232" fill="url(#bg)"/>
  <circle cx="512" cy="512" r="302" fill="#f0dfc3" opacity="0.55"/>

  <g filter="url(#shadow)">
    <circle cx="512" cy="512" r="278" fill="#1f2937"/>
    <circle cx="512" cy="512" r="94" fill="#f7f1e3"/>
    <circle cx="512" cy="512" r="38" fill="#1f2937"/>
  </g>

  <g fill="none" stroke="#6b7280" stroke-opacity="0.42">
    <circle cx="512" cy="512" r="236" stroke-width="10"/>
    <circle cx="512" cy="512" r="198" stroke-width="8"/>
    <circle cx="512" cy="512" r="160" stroke-width="7"/>
    <circle cx="512" cy="512" r="122" stroke-width="6"/>
  </g>

  <path d="M512 234 A278 278 0 0 1 743 359 L638 484 A120 120 0 0 0 512 392 Z" fill="#f97316"/>
  <path d="M288 642 A278 278 0 0 1 252 505 L400 505 A130 130 0 0 0 416 565 Z" fill="#f7f1e3"/>

  <path
    d="M222 560 L328 560 L402 470 L472 612 L538 402 L610 612 L686 498 L802 498"
    fill="none"
    stroke="#0f766e"
    stroke-width="46"
    stroke-linecap="round"
    stroke-linejoin="round"
  />
  <path
    d="M222 560 L328 560 L402 470 L472 612 L538 402 L610 612 L686 498 L802 498"
    fill="none"
    stroke="#f7f1e3"
    stroke-width="20"
    stroke-linecap="round"
    stroke-linejoin="round"
    opacity="0.95"
  />

  <circle cx="512" cy="512" r="58" fill="none" stroke="#f59e0b" stroke-width="20"/>
</svg>
