<svg xmlns="http://www.w3.org/2000/svg" width="1024" height="1024" viewBox="0 0 1024 1024">
  <defs>
    <linearGradient id="bg" x1="128" y1="112" x2="896" y2="912" gradientUnits="userSpaceOnUse">
      <stop offset="0" stop-color="#173836"/>
      <stop offset="1" stop-color="#0a161a"/>
    </linearGradient>
    <linearGradient id="cd" x1="324" y1="178" x2="720" y2="712" gradientUnits="userSpaceOnUse">
      <stop offset="0" stop-color="#fffdf8"/>
      <stop offset="0.55" stop-color="#dee7eb"/>
      <stop offset="1" stop-color="#c3ccd2"/>
    </linearGradient>
  </defs>

  <rect width="1024" height="1024" rx="232" fill="url(#bg)"/>

  <circle cx="548" cy="398" r="274" fill="#081315" opacity="0.18"/>
  <circle cx="548" cy="380" r="250" fill="url(#cd)"/>
  <circle cx="548" cy="380" r="72" fill="#20445d"/>
  <circle cx="548" cy="380" r="26" fill="#f8f4eb"/>
  <circle cx="548" cy="380" r="208" fill="none" stroke="#74828e" stroke-width="8" stroke-opacity="0.42"/>
  <circle cx="548" cy="380" r="170" fill="none" stroke="#74828e" stroke-width="7" stroke-opacity="0.34"/>
  <circle cx="548" cy="380" r="132" fill="none" stroke="#74828e" stroke-width="6" stroke-opacity="0.28"/>
  <path d="M548 130 A250 250 0 0 1 764 250 L654 368 A108 108 0 0 0 548 272 Z" fill="#f8b347"/>
  <path d="M390 574 A250 250 0 0 1 316 426 L448 414 A118 118 0 0 0 478 500 Z" fill="#4fd4cd"/>

  <g fill="#0b1720">
    <rect x="86" y="520" width="118" height="90" rx="4"/>
    <rect x="180" y="502" width="76" height="108" rx="4"/>
    <rect x="240" y="446" width="104" height="164" rx="4"/>
    <rect x="330" y="540" width="62" height="70" rx="4"/>
    <rect x="380" y="398" width="120" height="212" rx="4"/>
    <rect x="484" y="520" width="92" height="90" rx="4"/>
    <rect x="560" y="470" width="92" height="140" rx="4"/>
    <rect x="640" y="516" width="66" height="94" rx="4"/>
    <rect x="690" y="432" width="118" height="178" rx="4"/>
    <rect x="796" y="524" width="72" height="86" rx="4"/>
    <rect x="854" y="480" width="92" height="130" rx="4"/>
  </g>

  <g fill="#f5f1e8">
    <rect x="116" y="556" width="12" height="12"/>
    <rect x="144" y="556" width="12" height="12"/>
    <rect x="116" y="584" width="12" height="12"/>
    <rect x="144" y="584" width="12" height="12"/>
    <rect x="266" y="474" width="12" height="12"/>
    <rect x="294" y="474" width="12" height="12"/>
    <rect x="322" y="474" width="12" height="12"/>
    <rect x="266" y="502" width="12" height="12"/>
    <rect x="294" y="502" width="12" height="12"/>
    <rect x="408" y="428" width="12" height="12"/>
    <rect x="436" y="428" width="12" height="12"/>
    <rect x="408" y="456" width="12" height="12"/>
    <rect x="436" y="456" width="12" height="12"/>
    <rect x="718" y="462" width="12" height="12"/>
    <rect x="746" y="462" width="12" height="12"/>
    <rect x="774" y="462" width="12" height="12"/>
    <rect x="718" y="490" width="12" height="12"/>
    <rect x="746" y="490" width="12" height="12"/>
    <rect x="874" y="510" width="12" height="12"/>
    <rect x="902" y="510" width="12" height="12"/>
    <rect x="874" y="538" width="12" height="12"/>
    <rect x="902" y="538" width="12" height="12"/>
  </g>

  <rect x="52" y="608" width="920" height="22" rx="11" fill="#0b1720"/>
  <g fill="#0b1720" opacity="0.58">
    <rect x="96" y="660" width="150" height="8" rx="4"/>
    <rect x="186" y="684" width="82" height="8" rx="4"/>
    <rect x="316" y="666" width="124" height="8" rx="4"/>
    <rect x="520" y="680" width="116" height="8" rx="4"/>
    <rect x="706" y="664" width="142" height="8" rx="4"/>
  </g>
</svg>
