<svg xmlns="http://www.w3.org/2000/svg" width="1024" height="1024" viewBox="0 0 1024 1024">
  <defs>
    <linearGradient id="bg" x1="120" y1="112" x2="912" y2="912" gradientUnits="userSpaceOnUse">
      <stop offset="0" stop-color="#123242"/>
      <stop offset="1" stop-color="#081119"/>
    </linearGradient>
    <linearGradient id="cd" x1="332" y1="212" x2="698" y2="734" gradientUnits="userSpaceOnUse">
      <stop offset="0" stop-color="#fffef9"/>
      <stop offset="0.58" stop-color="#dbe5ea"/>
      <stop offset="1" stop-color="#bfc8d0"/>
    </linearGradient>
  </defs>

  <rect width="1024" height="1024" rx="232" fill="url(#bg)"/>

  <circle cx="524" cy="422" r="258" fill="url(#cd)"/>
  <circle cx="524" cy="422" r="74" fill="#17324c"/>
  <circle cx="524" cy="422" r="24" fill="#f8f5ec"/>
  <circle cx="524" cy="422" r="214" fill="none" stroke="#7d8792" stroke-width="8" stroke-opacity="0.42"/>
  <circle cx="524" cy="422" r="176" fill="none" stroke="#7d8792" stroke-width="7" stroke-opacity="0.36"/>
  <circle cx="524" cy="422" r="138" fill="none" stroke="#7d8792" stroke-width="6" stroke-opacity="0.30"/>
  <path d="M524 164 A258 258 0 0 1 746 292 L634 406 A110 110 0 0 0 524 312 Z" fill="#ffb347"/>
  <path d="M364 564 A258 258 0 0 1 304 402 L438 404 A116 116 0 0 0 460 486 Z" fill="#50d4ca"/>

  <g fill="#081119">
    <rect x="92" y="548" width="92" height="128" rx="4"/>
    <rect x="166" y="510" width="72" height="166" rx="4"/>
    <rect x="226" y="468" width="116" height="208" rx="4"/>
    <rect x="324" y="560" width="66" height="116" rx="4"/>
    <rect x="380" y="498" width="94" height="178" rx="4"/>
    <rect x="460" y="420" width="126" height="256" rx="4"/>
    <rect x="570" y="530" width="72" height="146" rx="4"/>
    <rect x="628" y="484" width="96" height="192" rx="4"/>
    <rect x="708" y="522" width="82" height="154" rx="4"/>
    <rect x="776" y="470" width="118" height="206" rx="4"/>
    <rect x="882" y="568" width="58" height="108" rx="4"/>
  </g>

  <g fill="#f8f5ec">
    <rect x="120" y="580" width="10" height="10"/>
    <rect x="144" y="580" width="10" height="10"/>
    <rect x="120" y="604" width="10" height="10"/>
    <rect x="252" y="494" width="10" height="10"/>
    <rect x="276" y="494" width="10" height="10"/>
    <rect x="300" y="494" width="10" height="10"/>
    <rect x="252" y="518" width="10" height="10"/>
    <rect x="408" y="526" width="10" height="10"/>
    <rect x="432" y="526" width="10" height="10"/>
    <rect x="488" y="448" width="10" height="10"/>
    <rect x="512" y="448" width="10" height="10"/>
    <rect x="536" y="448" width="10" height="10"/>
    <rect x="800" y="498" width="10" height="10"/>
    <rect x="824" y="498" width="10" height="10"/>
    <rect x="848" y="498" width="10" height="10"/>
    <rect x="800" y="522" width="10" height="10"/>
  </g>

  <rect x="68" y="676" width="888" height="24" rx="12" fill="#081119"/>
  <path d="M706 292 L764 344 L728 386 L770 430 L724 482" fill="none" stroke="#17324c" stroke-width="28" stroke-linecap="round" stroke-linejoin="round"/>
  <path d="M706 292 L764 344 L728 386 L770 430 L724 482" fill="none" stroke="#ff8c42" stroke-width="12" stroke-linecap="round" stroke-linejoin="round"/>
</svg>
